<svg width="126" height="411" viewBox="0 0 126 411" fill="none" xmlns="http://www.w3.org/2000/svg">
<g clip-path="url(#clip0_702_13)">
<rect x="22.5002" y="333.5" width="77" height="28" fill="#FF0D0D" stroke="#EF0505" stroke-width="3"/>
<path d="M88.346 382.25L63.5002 410.719L38.6544 382.25L88.346 382.25Z" fill="#9052FE" stroke="#9052FE" stroke-width="3"/>
<rect x="46.5002" y="56.5" width="33" height="64" fill="#9052FE" stroke="#9052FE" stroke-width="3"/>
<circle cx="63.5002" cy="293.5" r="21" fill="#FCF20E" stroke="#E0D80A" stroke-width="3"/>
<line x1="36.0002" y1="325.5" x2="93.0002" y2="325.5" stroke="#26CCD7" stroke-width="5"/>
<line x1="36.0002" y1="375.5" x2="93.0002" y2="375.5" stroke="#26CCD7" stroke-width="5"/>
<line x1="36.0002" y1="369.5" x2="93.0002" y2="369.5" stroke="#26CCD7" stroke-width="5"/>
<line x1="36.0002" y1="263.5" x2="93.0002" y2="263.5" stroke="#26CCD7" stroke-width="5"/>
<line x1="36.0002" y1="136.5" x2="93.0002" y2="136.5" stroke="#26CCD7" stroke-width="5"/>
<path d="M4.48924 12.351C4.48924 19.8017 6.35191 25.2627 10.0772 28.734C13.8026 32.29 18.6286 34.068 24.5552 34.068L45.8912 34.068C53.5112 34.068 57.3212 36.989 57.3212 42.831L57.3212 50.451L70.5292 50.451L70.5292 42.831C70.5292 36.989 74.3392 34.068 81.9592 34.068L103.295 34.068C109.307 34.068 114.133 32.29 117.773 28.734C121.499 25.2627 123.361 19.8017 123.361 12.351L123.361 -0.730001L110.026 -0.730002L110.026 11.462C110.026 14.0867 109.349 15.9493 107.994 17.05C106.724 18.2353 104.735 18.828 102.025 18.828L78.6572 18.828C74.1699 18.828 70.7832 19.717 68.4972 21.495C66.2959 23.273 64.7719 26.0247 63.9252 29.75C63.0786 26.0247 61.5122 23.273 59.2262 21.495C57.0249 19.717 53.6806 18.828 49.1932 18.828L25.8252 18.828C23.1159 18.828 21.1262 18.2353 19.8562 17.05C18.5016 15.9493 17.8242 14.0867 17.8242 11.462L17.8242 -0.730006L4.48924 -0.730006L4.48924 12.351Z" fill="#FF0361"/>
<path d="M26.9072 258.511C34.2732 250.044 39.8189 240.773 43.5442 230.698C47.3542 220.623 49.2592 210.082 49.2592 199.075C49.2592 176.808 41.8086 156.996 26.9072 139.639H11.5402C18.4829 148.106 23.7322 157.377 27.2882 167.452C30.9289 177.443 32.7492 187.984 32.7492 199.075C32.7492 210.166 30.9289 220.75 27.2882 230.825C23.7322 240.9 18.4829 250.129 11.5402 258.511H26.9072ZM99.6098 258.511C92.2438 250.044 86.6558 240.773 82.8458 230.698C79.1204 220.623 77.2578 210.082 77.2578 199.075C77.2578 176.808 84.7084 156.996 99.6098 139.639H114.977C108.034 148.106 102.742 157.377 99.1018 167.452C95.5458 177.443 93.7678 187.984 93.7678 199.075C93.7678 210.166 95.5458 220.75 99.1018 230.825C102.742 240.9 108.034 250.129 114.977 258.511H99.6098Z" fill="#FF0361"/>
<line x1="63.5002" y1="16" x2="63.5002" y2="490" stroke="black" stroke-opacity="0.12"/>
</g>
<defs>
<clipPath id="clip0_702_13">
<rect width="126" height="411" fill="white" transform="translate(0.000244141)"/>
</clipPath>
</defs>
</svg>
