<svg width="170" height="478" viewBox="0 0 170 478" fill="none" xmlns="http://www.w3.org/2000/svg">
<rect width="170" height="478" rx="9" fill="black"/>
<rect x="44.5" y="370.5" width="77" height="28" fill="#FF0D0D" stroke="#EF0505" stroke-width="3"/>
<path d="M108.346 419.25L83.5 447.719L58.6542 419.25L108.346 419.25Z" fill="#9052FE" stroke="#9052FE" stroke-width="3"/>
<rect x="70.5" y="93.5" width="33" height="64" fill="#9052FE" stroke="#9052FE" stroke-width="3"/>
<circle cx="83.5" cy="330.5" r="21" fill="#FCF20E" stroke="#E0D80A" stroke-width="3"/>
<line x1="57" y1="362.5" x2="114" y2="362.5" stroke="#26CCD7" stroke-width="5"/>
<line x1="57" y1="412.5" x2="114" y2="412.5" stroke="#26CCD7" stroke-width="5"/>
<line x1="57" y1="406.5" x2="114" y2="406.5" stroke="#26CCD7" stroke-width="5"/>
<line x1="57" y1="300.5" x2="114" y2="300.5" stroke="#26CCD7" stroke-width="5"/>
<line x1="57" y1="173.5" x2="114" y2="173.5" stroke="#26CCD7" stroke-width="5"/>
<path d="M27.489 49.351C27.489 56.8017 29.3517 62.2627 33.077 65.734C36.8023 69.29 41.6283 71.068 47.555 71.068L68.891 71.068C76.511 71.068 80.321 73.989 80.321 79.831L80.321 87.451L93.529 87.451L93.529 79.831C93.529 73.989 97.339 71.068 104.959 71.068L126.295 71.068C132.306 71.068 137.132 69.29 140.773 65.734C144.498 62.2627 146.361 56.8017 146.361 49.351L146.361 36.27L133.026 36.27L133.026 48.462C133.026 51.0867 132.349 52.9493 130.994 54.05C129.724 55.2353 127.734 55.828 125.025 55.828L101.657 55.828C97.1697 55.828 93.783 56.717 91.497 58.495C89.2957 60.273 87.7717 63.0247 86.925 66.75C86.0783 63.0247 84.512 60.273 82.226 58.495C80.0247 56.717 76.6803 55.828 72.193 55.828L48.825 55.828C46.1157 55.828 44.126 55.2353 42.856 54.05C41.5013 52.9493 40.824 51.0867 40.824 48.462L40.824 36.27L27.489 36.27L27.489 49.351Z" fill="#FF0361"/>
<path d="M47.907 295.511C55.273 287.044 60.8187 277.773 64.544 267.698C68.354 257.623 70.259 247.082 70.259 236.075C70.259 213.808 62.8083 193.996 47.907 176.639H32.54C39.4827 185.106 44.732 194.377 48.288 204.452C51.9287 214.443 53.749 224.984 53.749 236.075C53.749 247.166 51.9287 257.75 48.288 267.825C44.732 277.9 39.4827 287.129 32.54 295.511H47.907ZM120.61 295.511C113.244 287.044 107.656 277.773 103.846 267.698C100.12 257.623 98.2575 247.082 98.2575 236.075C98.2575 213.808 105.708 193.996 120.61 176.639H135.977C129.034 185.106 123.742 194.377 120.102 204.452C116.546 214.443 114.768 224.984 114.768 236.075C114.768 247.166 116.546 257.75 120.102 267.825C123.742 277.9 129.034 287.129 135.977 295.511H120.61Z" fill="#FF0361"/>
<rect x="19.5" y="22.5" width="135" height="436" rx="1.5" stroke="white"/>
</svg>
